<svg xmlns="http://www.w3.org/2000/svg" width="271" height="75" viewBox="0 0 271 75" fill="none"><g clip-path="url(#clip0_525_678)"><path d="M45.4948 36.2173C43.328 36.0466 37.4542 35.5347 33.3062 32.4698C28.8449 29.1647 27.6752 24.1849 27.3557 22.5039H25.0036C17.8131 22.5039 10.9295 25.5057 6.39151 30.8204C6.35316 30.8646 6.31481 30.9089 6.27646 30.9531C1.77045 36.3057 0.447406 41.8795 0 44.6601H0.236486C4.94703 44.6601 9.22295 42.2208 11.6453 38.3659C12.3612 37.2284 13.2496 36.0909 14.3617 35.0039C15.6145 33.7779 16.9183 32.8553 18.1519 32.1412V37.5633C18.1519 42.6568 17.6342 46.5876 16.5157 49.9306C13.3583 59.4099 5.04929 69.4705 0 74.9938C8.10443 74.9938 15.5761 70.8735 19.6795 64.2064C21.974 60.4842 23.9809 56.5345 25.2912 52.5974C26.6462 48.5277 27.3045 43.9397 27.3493 38.2269C28.5509 39.2064 29.9314 40.1669 31.5037 41.0454C32.814 41.7721 34.1051 42.3535 35.3514 42.8211C40.2218 44.6538 45.4948 41.2033 45.4948 36.2109V36.2173Z" fill="white"></path><path d="M31.9703 51.4975C31.4015 50.8719 30.4939 49.8987 29.8612 49.292C29.5671 50.6065 29.222 51.8767 28.8193 53.1027C28.1674 55.087 27.3557 57.0713 26.4353 59.0304C28.2888 61.3749 30.0465 64.1239 31.6252 66.9487C34.3863 71.8906 39.6977 75.0061 45.5076 75.0061C42.5547 67.5048 38.0551 58.1962 31.9703 51.5038V51.4975Z" fill="white"></path><path d="M29.1517 4.10779C26.3458 -0.101007 20.619 -1.27012 16.3559 1.51047C12.0991 4.28474 10.9167 9.95334 13.729 14.1621C16.5348 18.3709 27.8542 18.7501 27.8542 18.7501C27.8542 18.7501 31.9639 8.32291 29.1581 4.10779H29.1517Z" fill="white"></path></g><g clip-path="url(#clip1_525_678)"><path d="M73.6494 20.2227H56.469V24.1787H62.9819V50.2214H67.1172V24.1787H73.6494V20.2227Z" fill="white"></path><path d="M104.067 30.309C101.772 27.8254 98.8446 26.5615 95.3741 26.5615C91.9035 26.5615 88.9762 27.8317 86.6752 30.3343C84.6044 32.6093 83.5562 35.333 83.5562 38.4233C83.5562 41.5135 84.6619 44.2814 86.8478 46.607C89.0401 48.9389 91.9099 50.127 95.4124 50.127H95.4188C98.8255 49.8426 101.42 48.6861 103.146 46.6765V50.2281H107.243V38.4296C107.243 35.3141 106.169 32.584 104.06 30.3216L104.067 30.309ZM95.3741 30.3975C95.9237 30.3975 96.9783 30.4543 98.1799 30.9157C98.8127 31.1558 100.5 31.8952 101.766 33.6583C103.491 36.0661 103.21 38.7013 103.069 39.5924C102.897 40.6414 102.277 43.1629 99.8865 44.8818C99.6564 45.0461 96.4287 47.2895 92.7408 45.9751C90.312 45.1093 89.1168 43.2261 88.7524 42.6131C87.9663 41.286 87.5636 39.8831 87.5636 38.4485C87.5636 36.1988 88.3178 34.3282 89.8774 32.742C91.4305 31.1558 93.2265 30.3911 95.3804 30.3911L95.3741 30.3975Z" fill="white"></path><path d="M116.958 30.3843C118.198 30.3843 119.528 31.0479 120.902 32.3623L121.324 32.7668L123.899 30.1063L123.478 29.7081C121.356 27.6922 119.202 26.6685 117.073 26.6685C115.233 26.6685 113.679 27.2625 112.446 28.4379C111.212 29.6134 110.586 31.1111 110.586 32.8869C110.586 34.2519 110.982 35.4779 111.756 36.5269C112.516 37.6012 113.884 38.625 115.942 39.6487C118.096 40.7483 118.927 41.4245 119.24 41.7974C119.668 42.3029 119.873 42.8717 119.873 43.5289C119.873 44.3125 119.553 44.9824 118.889 45.5828C118.211 46.1958 117.418 46.4928 116.46 46.4928C115.054 46.4928 113.686 45.7597 112.395 44.3125L111.954 43.8259L109.448 46.6381L109.742 47.0173C110.528 48.0347 111.545 48.8373 112.759 49.3934C113.967 49.9496 115.252 50.2339 116.575 50.2339C118.588 50.2339 120.288 49.5641 121.637 48.2496C122.985 46.9288 123.669 45.3047 123.669 43.4152C123.669 42.0565 123.267 40.8115 122.474 39.7056C121.675 38.6376 120.237 37.5823 118.058 36.4827C116.057 35.4715 115.252 34.7701 114.913 34.3467C114.466 33.8285 114.248 33.3166 114.248 32.7731C114.248 32.1348 114.504 31.5914 115.022 31.1174C115.559 30.6308 116.185 30.397 116.945 30.397L116.958 30.3843Z" fill="white"></path><path d="M145.841 43.0612C143.937 45.4247 141.534 46.5812 138.51 46.5812C136.887 46.5812 135.404 46.2273 134.107 45.5258C132.822 44.8307 131.787 43.8259 131.045 42.543C130.189 41.0579 129.818 39.4465 129.952 37.7528C130.106 35.7685 131.058 33.9042 132.534 32.5582C134.139 31.0921 136.094 30.3843 138.504 30.3843C141.629 30.3843 144.026 31.5407 145.829 33.9232L146.148 34.3466L149.287 32.4065L148.999 31.9199C148.321 30.7824 147.478 29.8345 146.487 29.0951C145.509 28.3684 144.308 27.768 142.921 27.3256C141.54 26.8833 140.089 26.6558 138.619 26.6558C136.248 26.6558 134.081 27.1803 132.17 28.2167C130.253 29.2531 128.725 30.7192 127.619 32.5708C126.514 34.4224 125.958 36.4636 125.958 38.6312C125.958 41.8416 127.153 44.6032 129.511 46.8466C131.863 49.0837 134.848 50.2149 138.383 50.2149C140.69 50.2149 142.78 49.7725 144.589 48.9005C146.41 48.022 147.893 46.7581 148.98 45.153L149.306 44.6664L146.161 42.6441L145.829 43.0549L145.841 43.0612Z" fill="white"></path><path d="M222.993 29.9484C222.047 29.0257 221.018 28.2927 219.919 27.7618C218.404 27.0351 216.723 26.6622 214.921 26.6622C211.732 26.6622 208.964 27.825 206.695 30.1253C204.432 32.4193 203.282 35.2378 203.282 38.505C203.282 41.7722 204.439 44.5086 206.714 46.7899C208.996 49.0712 211.783 50.2277 214.998 50.2277C217.695 50.2277 219.663 49.4062 220.181 49.1787C221.006 48.8058 223.396 47.6999 225.141 45.0331C226.515 42.9413 226.822 40.8938 226.905 39.8195V20.2227H222.987V29.9484H222.993ZM222.162 34.2393C222.846 35.4527 223.192 36.824 223.192 38.3281C223.192 40.6663 222.437 42.5685 220.878 44.1294C219.325 45.6903 217.478 46.4486 215.234 46.4486C213.79 46.4486 212.441 46.0948 211.233 45.387C210.025 44.6855 209.047 43.6933 208.325 42.4358C207.603 41.1845 207.238 39.8258 207.238 38.4039C207.238 36.982 207.609 35.6423 208.338 34.3594C209.06 33.0766 210.051 32.0717 211.271 31.3703C212.492 30.6688 213.815 30.3086 215.196 30.3086C216.576 30.3086 217.97 30.6688 219.235 31.3703C220.494 32.0717 221.479 33.0386 222.156 34.2393H222.162Z" fill="white"></path><path d="M266.04 27.3635C261.732 26.8959 258.76 30.4159 258.613 30.5928C258.447 30.795 257.948 31.4144 257.52 32.337C256.964 33.5377 256.651 35.0228 256.651 37.2536V50.2149H260.652V37.2409C260.652 34.4098 261.688 32.3433 263.669 31.5534C265.228 30.9278 266.5 31.3006 266.948 31.4965L268.948 28.2925C267.753 27.6353 266.698 27.4267 266.04 27.3572V27.3635Z" fill="white"></path><path d="M198.392 32.021C197.753 30.5422 196.68 29.3541 195.19 28.482C193.72 27.6226 192.103 27.1865 190.39 27.1865C190.122 27.1865 189.853 27.1865 189.591 27.1865C189.329 27.1865 189.061 27.1865 188.792 27.1865C187.079 27.1865 185.462 27.6226 183.992 28.482C182.51 29.3541 181.429 30.5422 180.79 32.021C180.164 33.4744 179.857 35.6547 179.857 38.6754V50.2212H183.781V39.4717C183.781 37.0639 183.884 35.4524 184.075 34.6688C184.369 33.3923 184.926 32.5265 185.763 32.0146C186.472 31.5849 187.169 31.3764 187.949 31.2816C188.434 31.231 188.927 31.2184 189.419 31.2121C189.476 31.2121 189.534 31.2121 189.591 31.2121C189.649 31.2121 189.706 31.2121 189.764 31.2121C190.256 31.2184 190.748 31.231 191.234 31.2816C192.014 31.3764 192.71 31.5849 193.42 32.0146C194.257 32.5265 194.813 33.3923 195.107 34.6688C195.305 35.4461 195.401 37.0639 195.401 39.4717V50.2212H199.326V38.6754C199.326 35.6547 199.019 33.4744 198.392 32.021Z" fill="white"></path><path d="M81.1339 27.3635C76.826 26.8959 73.8539 30.4159 73.7069 30.5928C73.5408 30.795 73.0422 31.4144 72.614 32.337C72.0579 33.5377 71.7448 35.0228 71.7448 37.2536V50.2149H75.7458V37.2409C75.7458 34.4098 76.7813 32.3433 78.7626 31.5534C80.3222 30.9278 81.5941 31.3006 82.0415 31.4965L84.042 28.2925C82.8468 27.6353 81.7922 27.4267 81.1339 27.3572V27.3635Z" fill="white"></path><path d="M248.432 43.0175C247.933 43.719 247.46 44.2624 247.019 44.6353C246.674 44.926 245.824 45.5706 244.552 46.0382C243.146 46.5564 241.97 46.5754 241.548 46.5754C240.954 46.5754 239.816 46.5501 238.512 45.975C237.681 45.6085 236.927 45.0777 236.243 44.3699C234.933 43.0238 234.191 41.2986 234.032 39.2321H253.385V38.6507C253.366 35.63 252.535 33.0579 250.899 31.0231C248.591 28.1287 245.479 26.6626 241.644 26.6626C237.809 26.6626 234.856 28.0971 232.625 30.9283C230.874 33.1338 229.986 35.6932 229.986 38.518C229.986 41.5135 231.034 44.2309 233.098 46.607C235.182 49.0084 238.109 50.2218 241.784 50.2218C242.654 50.2218 244.296 50.2218 246.259 49.476C247.965 48.8315 249.154 47.9151 249.851 47.2895C251.385 45.9118 252.203 44.4268 252.618 43.5231L252.867 43.0238H248.438L248.432 43.0175ZM236.607 32.3186C238.033 31.0547 239.694 30.4417 241.676 30.4417C242.801 30.4417 243.919 30.6755 244.948 31.1305C246.099 31.6361 247.025 32.3186 247.703 33.1527C248.24 33.81 248.674 34.6757 249 35.7248H234.511C235.029 34.2397 235.732 33.0959 236.607 32.3186Z" fill="white"></path><path d="M170.231 43.0175C169.733 43.719 169.26 44.2624 168.819 44.6353C168.084 45.2609 167.164 45.7665 166.09 46.133C165.342 46.3858 164.562 46.5312 163.776 46.5691C161.456 46.6702 159.59 45.9561 158.049 44.3699C156.739 43.0238 155.998 41.2986 155.838 39.2321H175.191V38.6507C175.172 35.63 174.335 33.0579 172.705 31.0231C170.398 28.1287 167.285 26.6626 163.45 26.6626C159.615 26.6626 156.662 28.0971 154.432 30.9283C152.68 33.1338 151.792 35.6932 151.792 38.518C151.792 41.5135 152.84 44.2309 154.905 46.607C156.988 49.0084 159.916 50.2218 163.591 50.2218C165.24 50.2218 166.748 49.969 168.065 49.476C169.388 48.9831 170.596 48.2437 171.657 47.2895C172.718 46.3353 173.645 45.0713 174.424 43.5231L174.674 43.0238H170.244L170.231 43.0175ZM158.407 32.3186C159.833 31.0547 161.494 30.4417 163.476 30.4417C164.601 30.4417 165.719 30.6755 166.748 31.1305C167.899 31.6361 168.825 32.3186 169.503 33.1527C170.04 33.81 170.474 34.6757 170.8 35.7248H156.311C156.828 34.2397 157.532 33.0959 158.407 32.3186Z" fill="white"></path><path d="M60.5084 70.431C59.8948 70.431 59.3259 70.3173 58.8082 70.0961C58.2905 69.8749 57.8431 69.5653 57.4596 69.1798C57.0761 68.7943 56.7821 68.333 56.5648 67.8021C56.3475 67.2713 56.2452 66.7088 56.2452 66.1085V66.0832C56.2452 65.4892 56.3539 64.9331 56.5648 64.4022C56.7821 63.8714 57.0761 63.4101 57.4596 63.0182C57.8431 62.6201 58.2905 62.3105 58.821 62.083C59.3451 61.8555 59.9204 61.7417 60.5467 61.7417C60.9366 61.7417 61.2881 61.7733 61.5949 61.8365C61.9081 61.8997 62.1957 61.9882 62.4642 62.1082C62.7326 62.222 62.9755 62.3673 63.2056 62.5253C63.4293 62.6896 63.653 62.8729 63.8639 63.0688L63.2056 63.7639C62.8413 63.429 62.4514 63.151 62.0359 62.9361C61.6205 62.7212 61.122 62.6138 60.5339 62.6138C60.061 62.6138 59.6263 62.7023 59.2301 62.8792C58.8274 63.0562 58.4823 63.2963 58.1883 63.6123C57.8942 63.9219 57.6642 64.2885 57.498 64.7119C57.3318 65.129 57.2487 65.584 57.2487 66.0642V66.0895C57.2487 66.5761 57.3318 67.0311 57.498 67.4545C57.6642 67.8716 57.8942 68.2382 58.1883 68.5541C58.4823 68.8638 58.8338 69.1103 59.2301 69.2935C59.6263 69.4768 60.0674 69.5653 60.5339 69.5653C61.1156 69.5653 61.6205 69.4578 62.0423 69.2493C62.4642 69.0344 62.8796 68.7374 63.2823 68.3519L63.9151 68.9649C63.6977 69.1924 63.4676 69.3946 63.2312 69.5716C62.9947 69.7485 62.7326 69.9065 62.4578 70.0329C62.183 70.1593 61.8889 70.2604 61.5694 70.3362C61.2562 70.4058 60.8983 70.4437 60.5148 70.4437L60.5084 70.431Z" fill="white"></path><path d="M69.7122 61.8809H75.8608V62.734H70.6773V65.6283H75.3175V66.4815H70.6773V69.4327H75.9247V70.2858H69.7185V61.8809H69.7122Z" fill="white"></path><path d="M81.9774 61.8809H82.8786L88.2347 68.6175V61.8809H89.1679V70.2858H88.4009L82.9106 63.3912V70.2858H81.9774V61.8809Z" fill="white"></path><path d="M97.9498 62.7529H95.0928V61.8745H101.759V62.7529H98.9021V70.2795H97.9434V62.7529H97.9498Z" fill="white"></path><path d="M107.703 61.8809H111.359C111.883 61.8809 112.35 61.9567 112.759 62.102C113.168 62.2474 113.507 62.4559 113.775 62.7214C113.986 62.9299 114.146 63.1764 114.261 63.4544C114.376 63.7325 114.434 64.0421 114.434 64.3771V64.4023C114.434 64.7562 114.376 65.0659 114.261 65.344C114.146 65.622 113.986 65.8622 113.782 66.0644C113.577 66.2666 113.328 66.4372 113.047 66.5699C112.765 66.7026 112.459 66.7974 112.126 66.8543L114.74 70.2858H113.564L111.097 67.0186H108.668V70.2858H107.71V61.8809H107.703ZM111.282 66.1655C111.596 66.1655 111.89 66.1276 112.158 66.0454C112.427 65.9633 112.657 65.8495 112.855 65.7042C113.047 65.5588 113.2 65.3756 113.309 65.167C113.417 64.9521 113.475 64.712 113.475 64.4403V64.415C113.475 63.8968 113.283 63.486 112.9 63.1953C112.516 62.9046 111.986 62.7593 111.295 62.7593H108.668V66.1718H111.289L111.282 66.1655Z" fill="white"></path><path d="M124.564 70.4311C123.919 70.4311 123.324 70.3173 122.8 70.0835C122.27 69.8497 121.816 69.54 121.432 69.1419C121.049 68.7438 120.761 68.2824 120.55 67.7642C120.346 67.2397 120.243 66.6899 120.243 66.1148V66.0896C120.243 65.5145 120.346 64.9584 120.557 64.4338C120.768 63.903 121.062 63.4417 121.445 63.0499C121.829 62.6517 122.282 62.3358 122.819 62.1019C123.356 61.8681 123.944 61.748 124.59 61.748C125.235 61.748 125.823 61.8618 126.354 62.0956C126.884 62.3294 127.338 62.6391 127.721 63.0372C128.105 63.4354 128.393 63.8967 128.604 64.4149C128.808 64.9394 128.91 65.4892 128.91 66.0643C128.917 66.0706 128.917 66.0832 128.91 66.0896C128.91 66.6646 128.808 67.2207 128.597 67.7453C128.386 68.2761 128.092 68.7374 127.709 69.1292C127.325 69.5274 126.871 69.8433 126.335 70.0772C125.798 70.311 125.21 70.4311 124.564 70.4311ZM124.59 69.5526C125.075 69.5526 125.523 69.4642 125.932 69.2809C126.341 69.104 126.692 68.8575 126.98 68.5415C127.274 68.2319 127.498 67.8653 127.664 67.4483C127.83 67.0312 127.913 66.5825 127.913 66.1022V66.0769C127.913 65.5966 127.83 65.1479 127.664 64.7245C127.498 64.3011 127.268 63.9346 126.967 63.6249C126.667 63.3153 126.315 63.0625 125.906 62.8792C125.497 62.696 125.05 62.6012 124.564 62.6012C124.078 62.6012 123.631 62.6897 123.222 62.8729C122.813 63.0562 122.461 63.3027 122.174 63.6123C121.88 63.922 121.656 64.2885 121.49 64.7056C121.324 65.1227 121.24 65.5714 121.24 66.0516V66.0769C121.24 66.5572 121.324 67.0059 121.49 67.4293C121.656 67.8527 121.886 68.2129 122.186 68.5289C122.487 68.8385 122.838 69.0913 123.247 69.2746C123.656 69.4579 124.104 69.5526 124.59 69.5526Z" fill="white"></path><path d="M142.837 61.8809H146.02C146.5 61.8809 146.934 61.9441 147.324 62.0641C147.714 62.1905 148.053 62.3675 148.334 62.595C148.615 62.8225 148.826 63.1005 148.98 63.4291C149.127 63.7578 149.203 64.1306 149.203 64.5477V64.573C149.203 65.028 149.114 65.4261 148.935 65.7674C148.756 66.1086 148.513 66.393 148.213 66.6268C147.906 66.8606 147.554 67.0313 147.152 67.1513C146.749 67.2651 146.314 67.3283 145.867 67.3283H143.803V70.2921H142.844V61.8872L142.837 61.8809ZM145.905 66.4688C146.257 66.4688 146.576 66.4246 146.864 66.3361C147.152 66.2476 147.401 66.1213 147.605 65.9569C147.81 65.7926 147.97 65.5967 148.078 65.3692C148.187 65.1417 148.245 64.8889 148.245 64.6109V64.5856C148.245 63.9853 148.034 63.5303 147.618 63.2206C147.203 62.9109 146.647 62.7593 145.956 62.7593H143.803V66.4688H145.912H145.905Z" fill="white"></path><path d="M158.011 70.4059C157.333 70.4059 156.707 70.2984 156.145 70.0773C155.582 69.8561 155.045 69.5211 154.534 69.0598L155.128 68.3647C155.576 68.7628 156.023 69.0661 156.477 69.262C156.931 69.4579 157.455 69.5591 158.043 69.5591C158.631 69.5591 159.078 69.4263 159.423 69.1546C159.769 68.8892 159.941 68.5416 159.941 68.1308V68.1056C159.941 67.916 159.909 67.739 159.845 67.581C159.781 67.4231 159.666 67.284 159.507 67.1576C159.347 67.0312 159.117 66.9112 158.829 66.8101C158.541 66.709 158.171 66.6078 157.73 66.5067C157.244 66.4056 156.822 66.2855 156.458 66.1465C156.093 66.0075 155.799 65.8495 155.563 65.6536C155.326 65.464 155.154 65.2365 155.039 64.9837C154.924 64.7309 154.866 64.4276 154.866 64.0864V64.0611C154.866 63.7325 154.937 63.4291 155.071 63.1511C155.211 62.873 155.403 62.6265 155.652 62.4243C155.902 62.2221 156.196 62.0578 156.541 61.944C156.88 61.8303 157.25 61.7671 157.659 61.7671C158.286 61.7671 158.829 61.8556 159.296 62.0262C159.762 62.1968 160.21 62.4559 160.651 62.8035L160.095 63.5366C159.698 63.2143 159.302 62.9868 158.899 62.8414C158.497 62.6961 158.081 62.6265 157.64 62.6265C157.084 62.6265 156.643 62.7593 156.317 63.0184C155.991 63.2775 155.831 63.5998 155.831 63.9852V64.0105C155.831 64.2127 155.863 64.3897 155.927 64.5477C155.991 64.7057 156.106 64.851 156.279 64.9774C156.451 65.1101 156.681 65.2302 156.982 65.3376C157.282 65.445 157.666 65.5462 158.139 65.641C159.085 65.8495 159.788 66.1402 160.235 66.5067C160.683 66.8733 160.906 67.3788 160.906 68.0171V68.0424C160.906 68.4026 160.836 68.7312 160.689 69.0219C160.542 69.3126 160.344 69.5654 160.095 69.7739C159.839 69.9825 159.538 70.1404 159.181 70.2542C158.823 70.368 158.433 70.4248 158.017 70.4248L158.011 70.4059Z" fill="white"></path><path d="M167.068 61.8809H168.026V70.2858H167.068V61.8809Z" fill="white"></path><path d="M178.534 70.431C177.92 70.431 177.352 70.3173 176.834 70.0961C176.316 69.8749 175.869 69.5653 175.485 69.1798C175.102 68.7943 174.808 68.333 174.59 67.8021C174.373 67.2713 174.271 66.7088 174.271 66.1085V66.0832C174.271 65.4892 174.38 64.9331 174.59 64.4022C174.808 63.8714 175.102 63.4101 175.485 63.0182C175.869 62.6201 176.316 62.3105 176.847 62.083C177.371 61.8555 177.946 61.7417 178.572 61.7417C178.962 61.7417 179.314 61.7733 179.621 61.8365C179.934 61.8997 180.221 61.9882 180.49 62.1082C180.758 62.222 181.001 62.3673 181.231 62.5253C181.455 62.6896 181.679 62.8729 181.89 63.0688L181.231 63.7639C180.867 63.429 180.477 63.151 180.062 62.9361C179.646 62.7212 179.148 62.6138 178.56 62.6138C178.087 62.6138 177.652 62.7023 177.256 62.8792C176.853 63.0562 176.508 63.2963 176.214 63.6123C175.92 63.9219 175.69 64.2885 175.524 64.7119C175.357 65.129 175.274 65.584 175.274 66.0642V66.0895C175.274 66.5761 175.357 67.0311 175.524 67.4545C175.69 67.8716 175.92 68.2382 176.214 68.5541C176.508 68.8638 176.859 69.1103 177.256 69.2935C177.658 69.4705 178.093 69.5653 178.56 69.5653C179.141 69.5653 179.646 69.4578 180.068 69.2493C180.49 69.0344 180.905 68.7374 181.308 68.3519L181.941 68.9649C181.723 69.1924 181.493 69.3946 181.257 69.5716C181.02 69.7485 180.758 69.9065 180.483 70.0329C180.209 70.1593 179.915 70.2604 179.595 70.3362C179.282 70.4058 178.924 70.4437 178.54 70.4437L178.534 70.431Z" fill="white"></path><path d="M191.688 70.4311C191.042 70.4311 190.448 70.3173 189.924 70.0835C189.393 69.8497 188.939 69.54 188.556 69.1419C188.172 68.7438 187.885 68.2824 187.674 67.7642C187.469 67.2397 187.367 66.6899 187.367 66.1148V66.0896C187.367 65.5145 187.469 64.9584 187.68 64.4338C187.891 63.903 188.185 63.4417 188.569 63.0499C188.952 62.6581 189.406 62.3358 189.943 62.1019C190.48 61.8681 191.068 61.748 191.713 61.748C192.359 61.748 192.947 61.8618 193.477 62.0956C194.008 62.3294 194.462 62.6391 194.845 63.0372C195.229 63.4354 195.516 63.8967 195.727 64.4149C195.932 64.9394 196.034 65.4892 196.034 66.0643C196.04 66.0706 196.04 66.0832 196.034 66.0896C196.034 66.6646 195.932 67.2207 195.721 67.7453C195.51 68.2761 195.216 68.7374 194.832 69.1292C194.449 69.5274 193.995 69.8433 193.458 70.0772C192.921 70.311 192.333 70.4311 191.688 70.4311ZM191.713 69.5526C192.199 69.5526 192.646 69.4642 193.056 69.2809C193.465 69.104 193.816 68.8575 194.104 68.5415C194.398 68.2319 194.621 67.8653 194.788 67.4483C194.954 67.0312 195.037 66.5825 195.037 66.1022V66.0769C195.037 65.5966 194.954 65.1479 194.788 64.7245C194.621 64.3011 194.391 63.9346 194.091 63.6249C193.791 63.3153 193.439 63.0625 193.03 62.8792C192.621 62.696 192.173 62.6012 191.688 62.6012C191.202 62.6012 190.755 62.6897 190.346 62.8729C189.936 63.0562 189.585 63.3027 189.297 63.6123C189.003 63.922 188.78 64.2885 188.613 64.7056C188.447 65.1227 188.364 65.5714 188.364 66.0516V66.0769C188.364 66.5572 188.447 67.0059 188.613 67.4293C188.78 67.8527 189.01 68.2129 189.31 68.5289C189.61 68.8385 189.962 69.0913 190.371 69.2746C190.78 69.4579 191.228 69.5526 191.713 69.5526Z" fill="white"></path><path d="M202.189 61.8809H203.148V69.4074H207.935V70.2858H202.189V61.8809Z" fill="white"></path><path d="M217.784 70.4313C217.139 70.4313 216.544 70.3175 216.02 70.0837C215.49 69.8499 215.036 69.5402 214.652 69.1421C214.269 68.744 213.981 68.2826 213.77 67.7644C213.566 67.2399 213.464 66.6901 213.464 66.115V66.0898C213.464 65.5147 213.566 64.9586 213.777 64.434C213.988 63.9032 214.282 63.4419 214.665 63.0501C215.049 62.6519 215.503 62.336 216.039 62.1021C216.576 61.8683 217.164 61.7483 217.81 61.7483C218.455 61.7483 219.043 61.862 219.574 62.0958C220.104 62.3296 220.558 62.6393 220.942 63.0374C221.325 63.4356 221.613 63.8969 221.824 64.4151C222.028 64.9396 222.131 65.4894 222.131 66.0645C222.137 66.0708 222.137 66.0834 222.131 66.0898C222.131 66.6648 222.028 67.221 221.817 67.7455C221.606 68.2763 221.312 68.7376 220.929 69.1294C220.545 69.5276 220.092 69.8436 219.555 70.0774C219.018 70.3112 218.43 70.4313 217.784 70.4313ZM217.81 69.5529C218.296 69.5529 218.743 69.4644 219.152 69.2811C219.561 69.1042 219.913 68.8577 220.2 68.5417C220.494 68.2321 220.718 67.8655 220.884 67.4485C221.05 67.0314 221.133 66.5827 221.133 66.1024V66.0771C221.133 65.5968 221.05 65.1482 220.884 64.7247C220.718 64.3013 220.488 63.9348 220.187 63.6251C219.887 63.3155 219.536 63.0627 219.127 62.8794C218.717 62.6962 218.27 62.6014 217.784 62.6014C217.299 62.6014 216.851 62.6899 216.442 62.8731C216.033 63.0564 215.681 63.3029 215.394 63.6125C215.1 63.9222 214.876 64.2887 214.71 64.7058C214.544 65.1229 214.461 65.5716 214.461 66.0518V66.0771C214.461 66.5574 214.544 67.0061 214.71 67.4295C214.876 67.8529 215.106 68.2131 215.407 68.5291C215.707 68.8388 216.059 69.0915 216.468 69.2748C216.877 69.4581 217.324 69.5529 217.81 69.5529ZM218.353 59.8208H219.625L218.238 61.1353H217.484L218.353 59.8208Z" fill="white"></path><path d="M232.236 70.431C231.564 70.431 230.964 70.3173 230.433 70.0961C229.903 69.8749 229.449 69.5653 229.072 69.1735C228.695 68.7816 228.407 68.3203 228.209 67.7958C228.011 67.2713 227.908 66.7088 227.908 66.1085V66.0832C227.908 65.5081 228.011 64.9583 228.215 64.4338C228.42 63.9093 228.714 63.448 229.085 63.0498C229.455 62.6517 229.903 62.3294 230.427 62.0956C230.951 61.8618 231.532 61.7417 232.172 61.7417C232.53 61.7417 232.855 61.767 233.149 61.8112C233.444 61.8618 233.718 61.9313 233.974 62.0261C234.23 62.1209 234.466 62.2409 234.69 62.38C234.914 62.519 235.131 62.677 235.342 62.8539L234.722 63.5744C234.562 63.429 234.389 63.3026 234.21 63.1826C234.032 63.0688 233.84 62.9677 233.635 62.8792C233.431 62.7971 233.201 62.7275 232.958 62.6833C232.708 62.6328 232.44 62.6138 232.14 62.6138C231.673 62.6138 231.238 62.7086 230.842 62.8919C230.446 63.0751 230.107 63.3216 229.82 63.6376C229.538 63.9472 229.315 64.3137 229.148 64.7372C228.989 65.1542 228.906 65.5966 228.906 66.0642V66.0895C228.906 66.5951 228.982 67.0564 229.142 67.4798C229.302 67.9032 229.526 68.2698 229.813 68.5857C230.107 68.8954 230.459 69.1419 230.868 69.3188C231.283 69.4957 231.743 69.5842 232.261 69.5842C232.747 69.5842 233.207 69.5021 233.635 69.3378C234.063 69.1735 234.421 68.9775 234.715 68.7437V66.652H232.127V65.7988H235.636V69.1482C235.24 69.5021 234.754 69.8054 234.172 70.0519C233.591 70.3046 232.945 70.431 232.223 70.431H232.236Z" fill="white"></path><path d="M242.027 61.8809H242.986V70.2858H242.027V61.8809Z" fill="white"></path><path d="M253.494 70.431C252.88 70.431 252.311 70.3173 251.793 70.0961C251.276 69.8749 250.828 69.5653 250.445 69.1798C250.061 68.7943 249.767 68.333 249.55 67.8021C249.333 67.2713 249.23 66.7088 249.23 66.1085V66.0832C249.23 65.4892 249.339 64.9331 249.55 64.4022C249.767 63.8714 250.061 63.4101 250.445 63.0182C250.828 62.6201 251.276 62.3105 251.806 62.083C252.33 61.8555 252.906 61.7417 253.532 61.7417C253.922 61.7417 254.273 61.7733 254.58 61.8365C254.893 61.8997 255.181 61.9882 255.449 62.1082C255.718 62.222 255.961 62.3673 256.191 62.5253C256.415 62.6896 256.638 62.8729 256.849 63.0688L256.191 63.7639C255.826 63.429 255.437 63.151 255.021 62.9361C254.606 62.7212 254.107 62.6138 253.519 62.6138C253.046 62.6138 252.612 62.7023 252.215 62.8792C251.813 63.0562 251.468 63.2963 251.173 63.6123C250.879 63.9219 250.649 64.2885 250.483 64.7119C250.317 65.129 250.234 65.584 250.234 66.0642V66.0895C250.234 66.5761 250.317 67.0311 250.483 67.4545C250.649 67.8716 250.879 68.2382 251.173 68.5541C251.468 68.8638 251.819 69.1103 252.215 69.2935C252.618 69.4705 253.053 69.5653 253.519 69.5653C254.101 69.5653 254.606 69.4578 255.028 69.2493C255.449 69.0344 255.865 68.7374 256.268 68.3519L256.9 68.9649C256.683 69.1924 256.453 69.3946 256.216 69.5716C255.98 69.7485 255.718 69.9065 255.443 70.0329C255.168 70.1593 254.874 70.2604 254.555 70.3362C254.241 70.4058 253.883 70.4437 253.5 70.4437L253.494 70.431Z" fill="white"></path><path d="M266.647 70.4311C266.002 70.4311 265.407 70.3173 264.883 70.0835C264.353 69.8497 263.899 69.54 263.515 69.1419C263.132 68.7438 262.844 68.2824 262.633 67.7642C262.429 67.2397 262.327 66.6899 262.327 66.1148V66.0896C262.327 65.5145 262.429 64.9584 262.64 64.4338C262.851 63.903 263.145 63.4417 263.528 63.0499C263.912 62.6517 264.366 62.3358 264.902 62.1019C265.439 61.8681 266.027 61.748 266.673 61.748C267.318 61.748 267.906 61.8618 268.437 62.0956C268.967 62.3294 269.421 62.6391 269.805 63.0372C270.188 63.4354 270.476 63.8967 270.687 64.4149C270.891 64.9394 270.994 65.4892 270.994 66.0643C271 66.0706 271 66.0832 270.994 66.0896C270.994 66.6646 270.891 67.2207 270.68 67.7453C270.469 68.2761 270.175 68.7374 269.792 69.1292C269.408 69.5274 268.955 69.8433 268.418 70.0772C267.881 70.311 267.293 70.4311 266.647 70.4311ZM266.673 69.5526C267.159 69.5526 267.606 69.4642 268.015 69.2809C268.424 69.104 268.776 68.8575 269.063 68.5415C269.357 68.2319 269.581 67.8653 269.747 67.4483C269.913 67.0312 269.996 66.5825 269.996 66.1022V66.0769C269.996 65.5966 269.913 65.1479 269.747 64.7245C269.581 64.3011 269.351 63.9346 269.051 63.6249C268.75 63.3153 268.399 63.0625 267.99 62.8792C267.58 62.696 267.133 62.6012 266.647 62.6012C266.162 62.6012 265.714 62.6897 265.305 62.8729C264.896 63.0562 264.545 63.3027 264.257 63.6123C263.963 63.922 263.739 64.2885 263.573 64.7056C263.407 65.1227 263.324 65.5714 263.324 66.0516V66.0769C263.324 66.5572 263.407 67.0059 263.573 67.4293C263.739 67.8527 263.969 68.2129 264.27 68.5289C264.57 68.8385 264.922 69.0913 265.331 69.2746C265.74 69.4579 266.187 69.5526 266.673 69.5526Z" fill="white"></path></g><defs><clipPath id="clip0_525_678"><rect width="45.5139" height="75" fill="white"></rect></clipPath><clipPath id="clip1_525_678"><rect width="214.755" height="50.2085" fill="white" transform="translate(56.2452 20.2227)"></rect></clipPath></defs></svg>