<svg width="202" height="40" viewBox="0 0 202 40" fill="none" xmlns="http://www.w3.org/2000/svg">
<g clip-path="url(#clip0_6351_17715)">
<path d="M95.0103 22.2183C93.9214 21.8896 92.8095 21.6426 91.6838 21.4791C88.3573 20.9452 85.1951 21.3559 81.9507 22.2183C80.9154 22.5608 79.9122 22.9936 78.9528 23.512L78.4395 23.7995C79.0349 24.7645 79.6099 25.6886 80.2464 26.5921C81.1089 26.2224 82.0329 25.8528 82.9364 25.5654C84.7407 25.0538 86.6051 24.7845 88.4805 24.7645C90.3574 24.7642 92.2246 25.0339 94.0247 25.5654C94.9537 25.8556 95.8655 26.1984 96.7557 26.5921C97.3922 25.6886 97.9672 24.7645 98.5421 23.7995L98.0493 23.512C97.0739 22.9972 96.0574 22.5645 95.0103 22.2183" fill="#00754A"/>
<path d="M91.6838 27.1459C88.4285 26.6361 85.0999 26.8748 81.9507 27.844L81.191 28.1315C81.7454 28.9734 82.2793 29.7537 82.731 30.5545L83.1006 31.1295C86.6188 30.0895 90.3627 30.0895 93.8809 31.1295L94.2711 30.5545C94.7228 29.7537 95.2156 28.9734 95.77 28.1315L95.0103 27.844C93.9156 27.5484 92.805 27.3153 91.6838 27.1459" fill="#205A41"/>
<path d="M90.8008 32.5869C88.9615 32.4294 87.111 32.457 85.2772 32.669L84.1478 32.8743L86.0575 36.1392L88.4805 35.9544L90.9035 36.1392L92.8542 32.8743L91.6838 32.669L90.8008 32.5869" fill="#71984A"/>
<path d="M89.0555 0H87.9467C84.4818 0.197471 81.2157 1.68191 78.7884 4.16234C76.3612 6.64277 74.9478 9.94033 74.8255 13.4086C74.8042 14.9983 75.0757 16.5784 75.6263 18.0698C76.2091 17.5592 76.8343 17.099 77.4949 16.694C77.2499 15.7834 77.1256 14.8445 77.1253 13.9014C77.1253 10.9225 78.3087 8.06561 80.4151 5.95919C82.5215 3.85278 85.3784 2.6694 88.3573 2.6694H88.6448C91.6166 2.68027 94.463 3.86844 96.5605 5.97368C98.6581 8.07891 99.8358 10.9296 99.8358 13.9014C99.8469 14.8452 99.7224 15.7857 99.4662 16.694C100.132 17.1105 100.77 17.5701 101.376 18.0698C101.907 16.5732 102.178 14.9967 102.177 13.4086C102.054 9.94033 100.641 6.64277 98.2137 4.16234C95.7865 1.68191 92.5203 0.197471 89.0555 0" fill="#F5CE3E"/>
<path d="M98.0082 15.8515C98.1486 15.2109 98.2174 14.5567 98.2136 13.9008C98.2136 11.363 97.2054 8.92916 95.4109 7.13467C93.6164 5.34017 91.1826 4.33203 88.6448 4.33203H88.3573C85.8195 4.33203 83.3856 5.34017 81.5911 7.13467C79.7966 8.92916 78.7885 11.363 78.7885 13.9008C78.7708 14.5551 78.8259 15.2094 78.9528 15.8515C79.8083 15.3961 80.6932 14.9982 81.6017 14.6606C81.5811 14.3936 81.5606 14.1472 81.5606 13.9008C81.566 12.1018 82.2845 10.3783 83.5585 9.10809C84.8326 7.83789 86.5582 7.12463 88.3573 7.12464H88.6448C90.4419 7.12464 92.1655 7.83856 93.4363 9.10934C94.707 10.3801 95.421 12.1037 95.421 13.9008V13.9008C95.4375 14.1548 95.4237 14.4099 95.3799 14.6606C96.2868 14.9857 97.1658 15.384 98.0082 15.8515" fill="#F5CE3E"/>
<path d="M87.2279 38.0894L87.9055 39.1571C87.9386 39.2395 87.9884 39.314 88.0519 39.3759C88.1154 39.4378 88.1912 39.4858 88.2743 39.5167C88.3575 39.5477 88.4461 39.5609 88.5347 39.5555C88.6232 39.5502 88.7097 39.5264 88.7885 39.4857C88.9302 39.4207 89.0408 39.3028 89.0965 39.1571L89.7741 38.0894H89.2197C88.7209 38.0483 88.2195 38.0483 87.7207 38.0894H87.2279Z" fill="#71984A"/>
<path d="M99.425 18.7278C98.9825 18.4402 98.5231 18.1796 98.0492 17.9475C97.0838 17.412 96.0653 16.9785 95.0102 16.6539C93.9227 16.305 92.8108 16.0373 91.6837 15.853L90.7186 15.7709C90.3611 15.7347 90.0307 15.5639 89.7943 15.2932C89.558 15.0225 89.4333 14.6721 89.4455 14.313V13.7791C89.4424 13.7406 89.4477 13.7018 89.4611 13.6655C89.4744 13.6293 89.4955 13.5963 89.5229 13.569C89.5502 13.5416 89.5831 13.5206 89.6194 13.5072C89.6557 13.4939 89.6945 13.4885 89.733 13.4916H89.7741L91.1088 13.6148C92.0445 13.7452 92.9705 13.9373 93.8808 14.1898V13.9023C93.8808 12.5136 93.3292 11.1818 92.3472 10.1998C91.3652 9.21784 90.0334 8.66618 88.6447 8.66618H88.3572C86.9775 8.65522 85.6496 9.19145 84.6644 10.1574C83.6791 11.1234 83.1168 12.4405 83.1006 13.8202V14.1898C84.0178 13.9372 84.9507 13.7451 85.8932 13.6148L87.3511 13.4506C87.4382 13.4506 87.5218 13.4852 87.5834 13.5468C87.645 13.6084 87.6796 13.692 87.6796 13.7791V14.3541C87.6768 14.7158 87.5415 15.0639 87.2994 15.3326C87.0572 15.6012 86.7249 15.7718 86.3654 15.812C84.8713 15.9575 83.3935 16.2393 81.9507 16.6539C80.9022 16.9609 79.8954 17.3954 78.9527 17.9475L77.5359 18.7278L76.2012 19.6107C76.6529 20.5553 77.1252 21.5204 77.6591 22.4855L77.9466 22.2596C79.5021 21.273 81.1794 20.493 82.9363 19.9393C84.7448 19.4476 86.6067 19.1787 88.4804 19.1385C90.3542 19.1787 92.216 19.4476 94.0246 19.9393C95.7799 20.4971 97.4567 21.2768 99.0143 22.2596L99.3429 22.4855C99.8562 21.5409 100.328 20.5964 100.76 19.6107L99.425 18.7278Z" fill="#71984A"/>
<path d="M12.3819 16.6937H5.89322C5.79352 16.6964 5.69697 16.7292 5.61631 16.7878C5.53565 16.8465 5.47469 16.9282 5.44148 17.0223L4.64066 19.0141C4.60417 19.1043 4.54181 19.1816 4.46142 19.2365C4.38102 19.2913 4.28621 19.3211 4.18891 19.3221H0.492813C0.360255 19.3168 0.234899 19.2603 0.143025 19.1646C0.0511509 19.0689 -0.000106007 18.9414 1.64612e-07 18.8087C1.64612e-07 18.7471 0.020534 18.7061 0.020534 18.6445L6.77618 3.61365C6.81075 3.53201 6.8676 3.46176 6.94023 3.41092C7.01285 3.36009 7.09832 3.33072 7.18686 3.32617H11.1499C11.2438 3.33007 11.3351 3.3587 11.4144 3.40918C11.4937 3.45966 11.5583 3.53019 11.6016 3.61365L18.2957 18.6445C18.3214 18.7061 18.3338 18.7726 18.3319 18.8394C18.3301 18.9062 18.3141 18.9719 18.285 19.0321C18.2559 19.0922 18.2143 19.1455 18.1631 19.1884C18.1118 19.2314 18.052 19.2629 17.9877 19.281L17.8439 19.3221H14.1068C14.0066 19.3224 13.9085 19.2934 13.8246 19.2387C13.7406 19.184 13.6746 19.1059 13.6345 19.0141L12.8542 17.0223C12.8173 16.9266 12.7526 16.8442 12.6684 16.7856C12.5842 16.7271 12.4845 16.6951 12.3819 16.6937V16.6937ZM8.68583 8.95246L7.35113 12.2379C7.32855 12.2998 7.31863 12.3657 7.32197 12.4315C7.3253 12.4974 7.34182 12.5619 7.37054 12.6213C7.39926 12.6806 7.4396 12.7336 7.48917 12.7771C7.53875 12.8206 7.59654 12.8537 7.65914 12.8744H10.4723C10.5388 12.8745 10.6046 12.8611 10.6657 12.8351C10.7269 12.809 10.7822 12.7709 10.8282 12.7229C10.8743 12.6749 10.9101 12.6182 10.9336 12.556C10.9572 12.4938 10.9679 12.4275 10.9651 12.3611C10.9608 12.311 10.9469 12.2622 10.924 12.2173L9.60986 8.93192C9.55571 8.81143 9.45721 8.71645 9.33482 8.66673C9.21244 8.61702 9.0756 8.61639 8.95277 8.66498C8.89292 8.68975 8.83853 8.72607 8.79273 8.77188C8.74692 8.81768 8.7106 8.87207 8.68583 8.93192" fill="white"/>
<path d="M31.2936 7.61833C31.2419 7.68297 31.1777 7.73652 31.1049 7.77581C31.032 7.81509 30.952 7.83928 30.8696 7.84695C30.7872 7.85461 30.7041 7.84559 30.6252 7.82043C30.5464 7.79526 30.4734 7.75446 30.4107 7.70046C29.4806 7.0212 28.3591 6.65453 27.2074 6.65323C24.5791 6.65323 22.9158 8.23434 22.9158 11.3555C22.9158 13.4089 24.0041 15.9345 27.2074 15.9345C28.156 15.9503 29.0961 15.7539 29.9589 15.3596C30.059 15.2907 30.141 15.1987 30.1982 15.0916C30.2553 14.9844 30.2859 14.865 30.2875 14.7436V13.7374C30.2875 13.5632 30.2182 13.396 30.095 13.2728C29.9718 13.1496 29.8047 13.0803 29.6304 13.0803H26.9199C26.7402 13.0803 26.5678 13.0089 26.4408 12.8819C26.3137 12.7548 26.2423 12.5824 26.2423 12.4027V10.2056C26.2423 10.0259 26.3137 9.85352 26.4408 9.72645C26.5678 9.59937 26.7402 9.52798 26.9199 9.52798H33.3676C33.5498 9.53241 33.724 9.60405 33.8567 9.72913C33.9893 9.85421 34.0711 10.0239 34.0862 10.2056V16.4479C34.0711 16.5625 34.0364 16.6736 33.9836 16.7764C32.9158 18.7272 30.2053 19.7744 27.1663 19.7744C20.883 19.7744 18.46 15.5239 18.46 11.3555C18.46 7.18711 21.2115 2.875 27.2074 2.875C29.2402 2.875 31.0472 3.24461 32.9569 4.94892C33.0944 5.06145 33.1823 5.22351 33.2015 5.40019C33.2207 5.57687 33.1697 5.75403 33.0595 5.89348L32.9979 5.95508L31.2936 7.61833Z" fill="white"/>
<path d="M60.3901 2.95726C58.7233 2.94507 57.0904 3.42792 55.6983 4.34465C54.3062 5.26138 53.2176 6.57071 52.5703 8.10675C51.9231 9.64279 51.7463 11.3364 52.0625 12.973C52.3787 14.6095 53.1736 16.1154 54.3465 17.2998C55.5193 18.4842 57.0174 19.2938 58.6508 19.6259C60.2842 19.9581 61.9794 19.798 63.5217 19.1658C65.064 18.5336 66.3839 17.4578 67.3142 16.0747C68.2445 14.6916 68.7433 13.0635 68.7474 11.3967V11.3145C68.7474 9.09805 67.8669 6.97235 66.2996 5.40505C64.7323 3.83775 62.6066 2.95726 60.3901 2.95726V2.95726V2.95726ZM60.3901 15.1954C59.6217 15.1995 58.8694 14.9754 58.2284 14.5514C57.5875 14.1274 57.0869 13.5228 56.79 12.814C56.4932 12.1052 56.4134 11.3243 56.5608 10.5701C56.7082 9.81592 57.0762 9.12249 57.6181 8.57768C58.16 8.03287 58.8515 7.6612 59.6049 7.50978C60.3583 7.35837 61.1396 7.43401 61.85 7.72714C62.5603 8.02026 63.1676 8.51766 63.595 9.15631C64.0223 9.79496 64.2505 10.5461 64.2505 11.3145C64.2505 12.3403 63.8445 13.3243 63.1211 14.0515C62.3977 14.7787 61.4158 15.19 60.3901 15.1954Z" fill="white"/>
<path d="M47.1868 27.8859C47.0753 27.9981 46.9279 28.0678 46.7704 28.0828C46.6129 28.0978 46.4551 28.0572 46.3244 27.968C45.3997 27.2654 44.2612 26.9028 43.1006 26.9413C40.5338 26.9413 38.8295 28.4814 38.8295 31.6025C38.8295 33.6765 39.8973 36.2227 43.1006 36.2227C44.0563 36.2417 45.0018 36.0229 45.8521 35.5861C45.9543 35.5296 46.0391 35.4461 46.097 35.3447C46.155 35.2433 46.1839 35.1279 46.1806 35.0112V34.005C46.1806 33.8307 46.1114 33.6636 45.9882 33.5404C45.865 33.4171 45.6978 33.3479 45.5236 33.3479H42.8131C42.6333 33.3325 42.466 33.25 42.3443 33.1168C42.2225 32.9837 42.1553 32.8096 42.156 32.6292V30.4732C42.1532 30.3852 42.1682 30.2975 42.2 30.2154C42.2318 30.1333 42.2797 30.0584 42.341 29.9952C42.4023 29.932 42.4757 29.8818 42.5568 29.8475C42.6379 29.8132 42.725 29.7955 42.8131 29.7956H49.3018C49.3908 29.7956 49.4789 29.8131 49.5611 29.8471C49.6433 29.8812 49.718 29.9311 49.7809 29.994C49.8439 30.0569 49.8938 30.1316 49.9278 30.2139C49.9619 30.2961 49.9794 30.3842 49.9794 30.4732V36.7155C49.9617 36.8272 49.9342 36.9371 49.8973 37.044C48.809 38.9537 46.0985 40.0009 43.1006 40.0009C36.7761 40.0009 34.3737 35.7914 34.3737 31.6025C34.3737 27.4136 37.1252 23.1426 43.1006 23.1426C45.1539 23.1426 46.9815 23.5122 48.85 25.2165C48.9876 25.329 49.0755 25.4911 49.0947 25.6678C49.1139 25.8445 49.0629 26.0216 48.9527 26.1611L48.8911 26.2227L47.1868 27.8859Z" fill="white"/>
<path d="M60.3901 23.2246C58.17 23.2301 56.0428 24.1165 54.4758 25.6893C52.9088 27.2621 52.0301 29.3925 52.0328 31.6127C52.0356 33.8328 52.9194 35.9611 54.4903 37.5301C56.0611 39.099 58.1905 39.9802 60.4107 39.9802C62.6308 39.9802 64.7602 39.099 66.331 37.5301C67.9019 35.9611 68.7858 33.8328 68.7885 31.6127C68.7912 29.3925 67.9126 27.2621 66.3456 25.6893C64.7786 24.1165 62.6513 23.2301 60.4312 23.2246H60.3901ZM60.3901 35.4628C59.6208 35.4669 58.8677 35.2422 58.2263 34.8173C57.585 34.3924 57.0844 33.7865 56.7881 33.0766C56.4918 32.3666 56.4132 31.5846 56.5623 30.8299C56.7114 30.0751 57.0814 29.3817 57.6254 28.8377C58.1694 28.2938 58.8628 27.9237 59.6175 27.7746C60.3723 27.6255 61.1543 27.7041 61.8643 28.0004C62.5742 28.2967 63.1801 28.7973 63.605 29.4386C64.0299 30.08 64.2546 30.8331 64.2505 31.6024C64.2451 32.6246 63.8367 33.6034 63.1139 34.3262C62.3911 35.049 61.4123 35.4574 60.3901 35.4628V35.4628Z" fill="white"/>
<path d="M50.9857 19.3221C51.0603 19.3172 51.1307 19.2854 51.1836 19.2325C51.2365 19.1796 51.2683 19.1093 51.2731 19.0346V18.973C51.2731 18.8498 51.191 18.7677 51.1089 18.6445C50.9703 18.5124 50.8526 18.3601 50.7598 18.1927L49.6099 16.6937L48.3573 15.1126L47.7208 14.2297H47.6797C47.5904 14.107 47.5532 13.9539 47.5763 13.8039C47.5994 13.6538 47.6808 13.519 47.8029 13.4288C47.8114 13.4091 47.8259 13.3926 47.8443 13.3815C47.8628 13.3705 47.8842 13.3655 47.9056 13.3672C50.0616 12.1968 50.6366 10.6568 50.6366 8.82925C50.6366 5.95451 48.5216 3.32617 44.4354 3.32617H37.4128C37.1967 3.33673 36.9929 3.43006 36.8438 3.58682C36.6947 3.74357 36.6117 3.95171 36.6119 4.16806V18.5212C36.6119 18.7336 36.6963 18.9373 36.8465 19.0875C36.9967 19.2377 37.2004 19.3221 37.4128 19.3221H40.3286C40.5376 19.3277 40.7405 19.2514 40.8939 19.1094C41.0474 18.9675 41.1393 18.7711 41.1499 18.5623V14.9484C41.1386 14.7501 41.2053 14.5553 41.3358 14.4056C41.4662 14.2559 41.6501 14.1633 41.8481 14.1475H42.2793C42.408 14.1403 42.5363 14.1668 42.6515 14.2244C42.7668 14.282 42.865 14.3688 42.9364 14.4761L46.1807 18.973C46.2641 19.0741 46.3671 19.1573 46.4836 19.2173C46.6001 19.2773 46.7276 19.3129 46.8584 19.3221H50.9857ZM44.4764 10.78H41.9508C41.8448 10.7828 41.7394 10.764 41.641 10.7248C41.5425 10.6855 41.4531 10.6266 41.3782 10.5517C41.3033 10.4768 41.2444 10.3874 41.2051 10.2889C41.1659 10.1905 41.1471 10.0851 41.1499 9.97915V9.97915V7.74096C41.1499 7.63674 41.1707 7.53357 41.2112 7.43753C41.2517 7.3415 41.311 7.25455 41.3857 7.18182C41.4603 7.10909 41.5488 7.05205 41.6458 7.01407C41.7429 6.97608 41.8466 6.95793 41.9508 6.96067H44.4354C45.6058 6.96067 46.1807 7.90523 46.1807 8.95246C46.1807 9.99968 45.6469 10.78 44.4764 10.78" fill="white"/>
<path d="M108.563 30.3691V8.84961H124.045V12.751H112.628V18.6443H123.429V22.402H112.628V30.3691H108.563Z" fill="white"/>
<path d="M131.294 10.9035C131.294 13.8399 126.858 13.8399 126.858 10.9035C126.858 7.9672 131.294 7.98774 131.294 10.9035ZM127.187 15.1335V30.3697H130.945V15.1335H127.187Z" fill="white"/>
<path d="M146.283 30.3702V22.4236C146.283 20.1238 145.031 18.3578 142.628 18.3578C140.226 18.3578 138.747 20.3086 138.747 22.6084V30.3702H135.01V15.1546H138.378L138.624 17.2285C140.164 15.709 141.704 14.9492 143.614 14.9492C147.187 14.9492 150.041 17.6186 150.041 22.403V30.3702H146.283Z" fill="white"/>
<path d="M166.92 28.4392C165.175 30.1641 163.326 30.8417 161.068 30.8417C156.673 30.8417 152.998 28.1928 152.998 22.7924C152.998 17.392 156.673 14.7637 161.068 14.7637C163.224 14.7637 164.887 15.3797 166.55 17.0019L164.189 19.507C163.35 18.7446 162.263 18.3139 161.129 18.2955C158.604 18.2955 156.756 20.1435 156.756 22.7924C156.756 25.4413 158.727 27.2277 161.068 27.2277C162.279 27.2277 163.47 26.8992 164.394 25.9752L166.92 28.4392Z" fill="white"/>
<path d="M181.068 15.1943H184.661V30.3688H181.129L180.945 28.1512C180.082 29.9376 177.7 30.8 176.016 30.8411C171.519 30.8616 168.193 28.0896 168.193 22.7713C168.193 17.453 171.663 14.7836 176.099 14.8247C178.131 14.8247 180.082 15.7692 180.945 17.2888L181.068 15.1943ZM171.951 22.7713C171.951 25.6666 173.942 27.3914 176.448 27.3914C182.361 27.3914 182.361 18.1717 176.448 18.1717C173.942 18.1717 171.951 19.876 171.951 22.7713Z" fill="white"/>
<path d="M198.275 19.2195C197.207 18.2134 195.975 17.8643 194.517 17.8643C192.731 17.8643 191.745 18.4187 191.745 19.3838C191.745 20.3489 192.649 20.9238 194.579 21.047C197.454 21.2318 201.088 21.8684 201.088 25.9136C201.088 28.583 198.891 30.9033 194.558 30.9033C192.156 30.9033 189.754 30.4926 187.536 28.1928L189.384 25.5029C190.821 27.0224 192.916 27.5973 194.62 27.6384C196.324 27.6795 197.351 27.084 197.351 25.9752C197.351 24.8663 196.489 24.3325 194.333 24.2093C191.478 24.0039 188.049 22.9567 188.049 19.507C188.049 16.0573 191.684 14.7637 194.456 14.7637C196.838 14.7637 198.624 15.2154 200.37 16.7555L198.275 19.2195Z" fill="white"/>
</g>
<defs>
<clipPath id="clip0_6351_17715">
<rect width="201.088" height="40" fill="white"/>
</clipPath>
</defs>
</svg>
