<svg width="169" height="80" viewBox="0 0 169 80" fill="none" xmlns="http://www.w3.org/2000/svg">
<g clip-path="url(#clip0_575_952)">
<path d="M3.89056 35.5508H0V30.7029H3.89056V29.6256C3.89056 19.2136 11.7411 17.9046 15.6797 17.9046C16.4451 17.8985 17.2095 17.9616 17.9638 18.0932V23.2642C17.4539 23.1823 16.9376 23.148 16.4215 23.1619C14.0733 23.1619 9.8785 23.9106 9.8785 29.7711V30.7029H17.286V35.5508H9.8785V62.2192H3.89056V35.5508Z" fill="#414042"/>
<path d="M23.8281 37.2152C23.8518 37.0294 23.8328 36.8405 23.7727 36.6633C23.7126 36.486 23.613 36.3251 23.4815 36.1928C23.3499 36.0606 23.1901 35.9607 23.0142 35.9007C22.8383 35.8408 22.6512 35.8224 22.4672 35.847H19.9375V30.7029H25.808C28.6472 30.7029 29.8213 31.888 29.8213 34.565V49.491C29.8213 53.854 30.6859 57.3391 35.6225 57.3391C42.0267 57.3391 45.8105 51.6725 45.8105 45.4404V30.7029H51.7931V55.6854C51.7676 55.8714 51.785 56.0608 51.844 56.2388C51.9031 56.4168 52.0021 56.5786 52.1333 56.7116C52.2646 56.8446 52.4245 56.9452 52.6007 57.0054C52.7768 57.0657 52.9644 57.084 53.1487 57.059H55.6784V62.23H49.9413C47.2728 62.23 45.9866 60.9803 45.9866 58.7396V57.5545C45.9866 56.558 46.0507 55.7501 46.0507 55.7501H45.9279C44.6311 58.8635 40.5911 62.9733 34.443 62.9733C27.4091 62.9733 23.8281 59.2405 23.8281 50.8915V37.2152Z" fill="#414042"/>
<path d="M59.5702 37.2152C59.5939 37.0294 59.575 36.8405 59.5149 36.6633C59.4548 36.486 59.3552 36.325 59.2236 36.1928C59.0921 36.0606 58.9323 35.9607 58.7564 35.9007C58.5805 35.8407 58.3934 35.8224 58.2094 35.847H55.6797V30.7029H61.3741C64.0906 30.7029 65.3874 31.8233 65.3874 34.3765V36.3749C65.3885 37.0949 65.3475 37.8143 65.2647 38.5295H65.3874C66.855 33.9348 70.4467 30.3043 75.2499 30.3043C75.7857 30.3102 76.3205 30.3516 76.851 30.4282V36.4072C76.2607 36.2864 75.66 36.2251 75.0578 36.2241C71.2313 36.2241 67.7089 38.9604 66.2893 43.6359C65.767 45.4775 65.5188 47.3872 65.5529 49.3024V62.23H59.5702V37.2152Z" fill="#414042"/>
<path d="M96.2986 29.9272C105.622 29.9272 113.142 36.8435 113.142 46.3776C113.142 55.9116 105.611 62.9464 96.2879 62.9464C86.9644 62.9464 79.5195 55.9709 79.5195 46.3776C79.5195 36.7842 86.9911 29.9272 96.2986 29.9272ZM96.2986 57.7161C102.222 57.7161 107.042 52.9814 107.042 46.3776C107.042 39.7737 102.238 35.1629 96.2986 35.1629C90.3587 35.1629 85.6249 39.833 85.6249 46.3776C85.6249 52.9221 90.4334 57.7161 96.2986 57.7161Z" fill="#414042"/>
<path d="M119.694 37.2152C119.718 37.0293 119.699 36.8405 119.638 36.6632C119.578 36.486 119.479 36.325 119.347 36.1928C119.216 36.0606 119.056 35.9606 118.88 35.9007C118.704 35.8407 118.517 35.8224 118.333 35.847H115.809V30.7029H121.487C124.203 30.7029 125.5 31.8233 125.5 34.3765V36.3749C125.501 37.0949 125.46 37.8143 125.378 38.5295H125.5C126.984 33.9186 130.565 30.3097 135.379 30.3097C135.915 30.3156 136.449 30.357 136.98 30.4336V36.4126C136.39 36.2918 135.789 36.2304 135.187 36.2294C131.36 36.2294 127.843 38.9658 126.424 43.6412C125.897 45.482 125.647 47.3921 125.682 49.3078V62.2354H119.694V37.2152Z" fill="#414042"/>
<path d="M155.302 29.9272C164.065 29.9272 168.756 36.5311 168.756 44.697C168.756 45.5049 168.575 47.1855 168.575 47.1855H145.808C146.176 53.9132 150.99 57.7161 156.545 57.7161C161.919 57.7161 165.682 54.0425 165.682 54.0425L168.276 58.3517C164.948 61.3082 160.669 62.9447 156.236 62.9571C146.363 62.9571 139.633 55.7931 139.633 46.4476C139.633 36.4072 146.421 29.9272 155.302 29.9272ZM162.587 42.7632C162.4 37.5276 159.128 34.7266 155.238 34.7266C150.669 34.7266 146.966 37.5276 146.042 42.7632H162.587Z" fill="#414042"/>
<path d="M96.3 41.2066C95.721 41.2066 95.1658 40.9745 94.7565 40.5613C94.3472 40.1482 94.1172 39.5878 94.1172 39.0035V27.0832L105.511 22.4509C105.778 22.343 106.062 22.2891 106.349 22.2923C106.636 22.2955 106.92 22.3557 107.184 22.4695C107.448 22.5833 107.687 22.7484 107.887 22.9555C108.088 23.1626 108.246 23.4075 108.353 23.6763C108.46 23.9451 108.513 24.2325 108.51 24.5221C108.507 24.8117 108.447 25.0979 108.335 25.3642C108.222 25.6306 108.058 25.8719 107.853 26.0744C107.648 26.2769 107.405 26.4367 107.139 26.5446L98.4881 30.0619V39.0035C98.4866 39.5883 98.2555 40.1486 97.8453 40.5616C97.4351 40.9746 96.8794 41.2066 96.3 41.2066Z" fill="#00A3E3"/>
<path d="M87.2795 27.708C87.5573 27.7084 87.8326 27.6554 88.0907 27.5518L107.138 19.8115C107.672 19.5915 108.098 19.1671 108.323 18.6309C108.548 18.0947 108.554 17.4904 108.339 16.9501C108.124 16.4098 107.705 15.9774 107.175 15.7475C106.645 15.5176 106.047 15.5088 105.51 15.7231L86.4577 23.4581C85.9849 23.648 85.5927 23.9987 85.3489 24.4495C85.1051 24.9003 85.025 25.423 85.1225 25.9271C85.2199 26.4311 85.4889 26.885 85.8827 27.2102C86.2766 27.5354 86.7707 27.7115 87.2795 27.708Z" fill="#445D96"/>
<path d="M87.2803 21.0072C87.5584 21.0058 87.8337 20.9509 88.0915 20.8457L107.139 13.1053C107.673 12.8854 108.099 12.4609 108.324 11.9247C108.549 11.3885 108.555 10.7842 108.34 10.2439C108.125 9.70361 107.706 9.27123 107.176 9.04131C106.646 8.81139 106.047 8.80263 105.511 9.01695L86.4585 16.7304C85.9733 16.9131 85.568 17.2635 85.3148 17.7194C85.0615 18.1752 84.9766 18.707 85.0752 19.22C85.1738 19.7331 85.4495 20.1943 85.8532 20.5215C86.257 20.8488 86.7627 21.0209 87.2803 21.0072Z" fill="#635397"/>
<path d="M87.277 14.2472C87.5551 14.2458 87.8304 14.1909 88.0882 14.0857L107.135 6.35067C107.673 6.13281 108.103 5.70822 108.331 5.17031C108.559 4.6324 108.565 4.02523 108.35 3.48237C108.134 2.93951 107.713 2.50542 107.18 2.27561C106.647 2.0458 106.046 2.03909 105.508 2.25694L86.4551 9.99731C85.9879 10.1919 85.6019 10.5437 85.3625 10.9929C85.1232 11.4422 85.0453 11.9612 85.1421 12.4619C85.2389 12.9626 85.5045 13.4139 85.8936 13.7394C86.2828 14.0648 86.7716 14.2443 87.277 14.2472Z" fill="#873F97"/>
<path d="M87.2782 7.54108C87.5563 7.53961 87.8316 7.48477 88.0894 7.37948L95.7318 4.27149C95.9992 4.16326 96.2428 4.00294 96.4488 3.79968C96.6548 3.59642 96.8191 3.3542 96.9323 3.08686C97.0456 2.81951 97.1055 2.53227 97.1088 2.24154C97.112 1.9508 97.0585 1.66227 96.9513 1.39241C96.844 1.12255 96.6852 0.876654 96.4838 0.668753C96.2824 0.460853 96.0424 0.295023 95.7776 0.180731C95.5127 0.0664402 95.2281 0.00592581 94.94 0.00264354C94.652 -0.000638741 94.3661 0.0533753 94.0987 0.161602L86.4564 3.26421C85.9858 3.45663 85.5962 3.80821 85.3542 4.25873C85.1123 4.70925 85.0331 5.23066 85.1303 5.73363C85.2274 6.2366 85.4948 6.68982 85.8867 7.01564C86.2786 7.34146 86.7705 7.5196 87.2782 7.51953V7.54108Z" fill="#B31E8D"/>
<path d="M96.2999 42.6932C95.5792 42.6943 94.875 42.911 94.2763 43.3159C93.6775 43.7208 93.2112 44.2957 92.9361 44.9681C92.661 45.6404 92.5896 46.3799 92.7308 47.0932C92.8721 47.8065 93.2197 48.4616 93.7297 48.9755C94.2396 49.4895 94.8891 49.8394 95.5961 49.9809C96.303 50.1224 97.0356 50.0492 97.7014 49.7706C98.3671 49.492 98.9361 49.0205 99.3364 48.4156C99.7366 47.8107 99.9503 47.0996 99.9503 46.3722C99.9503 45.8886 99.8558 45.4098 99.6723 44.9631C99.4888 44.5164 99.2198 44.1106 98.8808 43.7689C98.5417 43.4272 98.1393 43.1563 97.6964 42.9717C97.2536 42.7872 96.779 42.6925 96.2999 42.6932Z" fill="#414042"/>
</g>
<defs>
<clipPath id="clip0_575_952">
<rect width="168.767" height="80" fill="white"/>
</clipPath>
</defs>
</svg>
