<svg width="168" height="32" viewBox="0 0 168 32" fill="none" xmlns="http://www.w3.org/2000/svg">
<path d="M27.1787 31.6587L27.136 13.7387L18.3467 28.5013H15.232L6.48533 14.1227V31.6587H0V1.792H5.71733L16.896 20.352L27.904 1.792H33.5787L33.664 31.6587H27.1787Z" fill="#3D3D3D"/>
<path d="M62.766 20.2667C62.766 20.352 62.7233 20.9493 62.638 22.0587H45.2727C45.5856 23.4809 46.3251 24.6044 47.4913 25.4293C48.6576 26.2542 50.1082 26.6667 51.8433 26.6667C53.038 26.6667 54.0904 26.496 55.0007 26.1547C55.9393 25.7849 56.8069 25.216 57.6033 24.448L61.1447 28.288C58.9829 30.7627 55.8256 32 51.6727 32C49.0842 32 46.7944 31.5022 44.8033 30.5067C42.8122 29.4827 41.2762 28.0747 40.1953 26.2827C39.1144 24.4907 38.574 22.4569 38.574 20.1813C38.574 17.9342 39.1002 15.9147 40.1527 14.1227C41.2336 12.3022 42.6984 10.8942 44.5473 9.89867C46.4247 8.87467 48.5153 8.36267 50.8193 8.36267C53.0664 8.36267 55.1002 8.84622 56.9207 9.81333C58.7411 10.7804 60.1633 12.1742 61.1873 13.9947C62.2398 15.7867 62.766 17.8773 62.766 20.2667ZM50.862 13.3973C49.3544 13.3973 48.0887 13.824 47.0647 14.6773C46.0407 15.5307 45.4149 16.6969 45.1873 18.176H56.494C56.2664 16.7253 55.6407 15.5733 54.6167 14.72C53.5927 13.8382 52.3411 13.3973 50.862 13.3973Z" fill="#3D3D3D"/>
<path d="M73.5547 11.7333C74.3511 10.624 75.4178 9.78489 76.7547 9.216C78.12 8.64711 79.6844 8.36267 81.448 8.36267V14.5067C80.7084 14.4498 80.2107 14.4213 79.9547 14.4213C78.0489 14.4213 76.5556 14.9618 75.4747 16.0427C74.3938 17.0951 73.8533 18.688 73.8533 20.8213V31.6587H67.1973V8.704H73.5547V11.7333Z" fill="#3D3D3D"/>
<path d="M95.2617 22.656L92.0617 25.8133V31.6587H85.4057V0H92.0617V17.92L101.79 8.704H109.726L100.168 18.432L110.579 31.6587H102.515L95.2617 22.656Z" fill="#3D3D3D"/>
<path d="M136.281 8.704V31.6587H129.966V28.928C129.084 29.9236 128.032 30.6916 126.809 31.232C125.586 31.744 124.263 32 122.841 32C119.826 32 117.436 31.1324 115.673 29.3973C113.909 27.6622 113.027 25.088 113.027 21.6747V8.704H119.683V20.6933C119.683 24.3911 121.234 26.24 124.334 26.24C125.927 26.24 127.207 25.728 128.174 24.704C129.141 23.6516 129.625 22.1013 129.625 20.0533V8.704H136.281Z" fill="url(#paint0_linear_271_634)"/>
<path d="M156.015 8.36267C158.148 8.36267 160.083 8.86045 161.818 9.856C163.581 10.8231 164.961 12.2027 165.956 13.9947C166.952 15.7582 167.45 17.8204 167.45 20.1813C167.45 22.5422 166.952 24.6187 165.956 26.4107C164.961 28.1742 163.581 29.5538 161.818 30.5493C160.083 31.5164 158.148 32 156.015 32C152.858 32 150.454 31.0044 148.804 29.0133V31.6587H142.447V0H149.103V11.136C150.781 9.28711 153.085 8.36267 156.015 8.36267ZM154.863 26.5387C156.57 26.5387 157.963 25.9698 159.044 24.832C160.154 23.6658 160.708 22.1156 160.708 20.1813C160.708 18.2471 160.154 16.7111 159.044 15.5733C157.963 14.4071 156.57 13.824 154.863 13.824C153.156 13.824 151.748 14.4071 150.639 15.5733C149.558 16.7111 149.018 18.2471 149.018 20.1813C149.018 22.1156 149.558 23.6658 150.639 24.832C151.748 25.9698 153.156 26.5387 154.863 26.5387Z" fill="url(#paint1_linear_271_634)"/>
<path d="M149.125 10.992L136.458 31.6587H129.792L149.125 1.65869V10.992Z" fill="url(#paint2_linear_271_634)"/>
<defs>
<linearGradient id="paint0_linear_271_634" x1="140.239" y1="0" x2="140.239" y2="32" gradientUnits="userSpaceOnUse">
<stop stop-color="#F9AF59"/>
<stop offset="1" stop-color="#F96559"/>
</linearGradient>
<linearGradient id="paint1_linear_271_634" x1="140.239" y1="0" x2="140.239" y2="32" gradientUnits="userSpaceOnUse">
<stop stop-color="#F9AF59"/>
<stop offset="1" stop-color="#F96559"/>
</linearGradient>
<linearGradient id="paint2_linear_271_634" x1="135.784" y1="32" x2="135.784" y2="3.33333" gradientUnits="userSpaceOnUse">
<stop stop-color="#F9AF59"/>
<stop offset="1" stop-color="#F96559"/>
</linearGradient>
</defs>
</svg>
